<?xml version="1.0" standalone="no"?>
<!DOCTYPE svg PUBLIC "-//W3C//DTD SVG 20010904//EN"
 "http://www.w3.org/TR/2001/REC-SVG-20010904/DTD/svg10.dtd">
<svg version="1.0" xmlns="http://www.w3.org/2000/svg"
 width="200.000000pt" height="45.000000pt" viewBox="0 0 200.000000 45.000000"
 preserveAspectRatio="xMidYMid meet">

<g transform="translate(0.000000,45.000000) scale(0.100000,-0.100000)"
fill="#000000" stroke="none">
<path d="M1155 400 c4 -27 4 -68 0 -89 -6 -38 -8 -40 -34 -35 -48 10 -91 -60
-91 -148 0 -40 -21 -75 -39 -64 -8 5 -11 28 -10 60 1 29 0 56 -3 62 -3 5 -8
26 -12 47 -6 31 -13 40 -44 53 -73 30 -106 -4 -121 -125 -13 -104 -40 -140
-62 -83 -11 27 -6 182 6 202 3 6 25 10 48 10 49 0 39 17 -13 22 -35 3 -35 3
-33 50 1 39 -2 47 -20 52 -35 9 -36 8 -39 -46 -3 -52 -4 -53 -35 -56 -41 -4
-43 -18 -3 -25 l30 -6 1 -93 c0 -115 14 -159 53 -173 25 -8 31 -6 50 18 l22
28 12 -26 c18 -39 68 -32 98 13 20 30 23 31 29 13 3 -11 15 -23 25 -26 21 -7
60 10 60 25 0 5 11 -2 25 -15 13 -14 33 -25 44 -25 24 0 51 25 51 47 0 13 5
12 24 -6 49 -46 99 -7 119 93 7 32 16 57 21 57 5 -1 9 -34 10 -74 2 -118 53
-167 97 -93 l20 35 21 -21 c19 -19 40 -20 79 -4 11 5 19 -1 27 -19 18 -39 68
-32 98 13 20 30 23 31 29 13 7 -24 39 -36 62 -23 11 7 23 6 34 -1 28 -18 45
-1 58 57 16 70 31 81 31 22 0 -62 7 -76 41 -76 31 0 53 24 64 72 10 40 -9 34
-24 -7 -22 -61 -41 -45 -41 34 0 48 -4 72 -15 81 -19 16 -34 5 -56 -44 l-19
-41 0 61 c0 48 -4 63 -17 68 -25 10 -33 -12 -33 -95 0 -47 -5 -82 -13 -94 -23
-30 -39 -9 -36 49 1 29 0 56 -3 62 -3 5 -8 26 -12 47 -6 31 -13 40 -44 53 -73
30 -108 -6 -121 -127 -8 -73 -20 -96 -45 -86 -21 8 -30 67 -18 124 11 50 5 63
-30 63 -15 0 -18 -9 -18 -55 0 -61 -35 -168 -53 -162 -12 4 -16 117 -7 167 4
22 1 26 -30 30 -27 4 -36 10 -38 28 -2 15 -9 22 -20 20 -14 -3 -18 -20 -23
-96 -4 -67 -10 -98 -22 -110 -14 -13 -19 -14 -29 -3 -10 9 -12 58 -10 192 l2
179 -31 0 -31 0 7 -50z m-236 -164 c14 -16 -4 -156 -24 -182 -35 -48 -66 33
-46 119 17 73 43 96 70 63z m225 -57 c-2 -71 -26 -143 -46 -136 -21 7 -17 147
5 181 28 43 42 28 41 -45z m525 57 c14 -16 -4 -156 -24 -182 -35 -48 -66 33
-46 119 17 73 43 96 70 63z"/>
<path d="M169 399 c-51 -51 -66 -164 -28 -213 11 -14 33 -29 48 -33 25 -7 27
-11 20 -38 -16 -61 -75 -97 -127 -79 -43 16 -50 39 -24 84 23 41 22 60 -3 60
-44 0 -60 -101 -23 -145 30 -34 107 -44 160 -22 62 26 72 58 76 245 l4 162
-41 0 c-28 0 -48 -7 -62 -21z m49 -127 c3 -86 2 -92 -17 -92 -28 0 -42 32 -42
95 0 62 15 98 39 93 14 -3 17 -18 20 -96z"/>
<path d="M1435 350 c-11 -18 15 -40 46 -40 33 0 37 10 11 33 -21 19 -48 22
-57 7z"/>
<path d="M325 248 c-3 -13 -5 -66 -3 -118 3 -93 3 -95 27 -95 22 0 27 7 39 55
18 74 32 86 32 28 0 -26 3 -53 6 -62 7 -18 54 -22 70 -6 7 7 20 6 40 -5 34
-17 62 -19 98 -5 38 14 32 41 -20 84 -36 30 -45 43 -42 64 3 24 7 27 40 25 30
-2 38 2 43 18 4 12 2 26 -3 31 -15 15 -87 0 -117 -24 -39 -31 -32 -60 27 -112
41 -36 50 -48 40 -58 -10 -10 -20 -8 -47 6 -28 16 -34 23 -29 42 9 37 -11 28
-25 -11 -22 -61 -41 -45 -41 34 0 48 -4 72 -15 81 -19 16 -34 5 -56 -44 l-19
-41 0 61 c0 47 -4 63 -16 68 -22 9 -23 8 -29 -16z"/>
</g>
</svg>
